<svg width="58" height="46" viewBox="0 0 58 46" fill="none" xmlns="http://www.w3.org/2000/svg">
<path d="M0 44.0636C5.8762 39.6848 12.2068 35.9439 18.8837 32.9047C29.1956 28.3585 39.0145 20.9193 39.0145 11.0796C39.0145 1.23987 34.9351 0 32.5209 0C29.1956 0 19.5362 3.93588 16.4671 20.5853C13.3979 37.2346 20.2081 45.6182 25.95 45.9522C31.6896 46.2886 34.0047 44.9887 37.5862 37.5494C40.972 35.0312 43.8429 34.3224 44.6138 30.7013C44.6565 30.4724 44.6506 30.2372 44.5966 30.0107C44.5426 29.7842 44.4416 29.5714 44.3001 29.3859C44.1586 29.2004 43.9797 29.0464 43.7749 28.9336C43.5701 28.8208 43.3439 28.7518 43.1107 28.7309L41.564 28.5363C41.9175 27.9334 42.3979 27.4137 42.9723 27.0126C43.5467 26.6116 44.2014 26.3387 44.8918 26.2128C47.1272 25.8788 48.6327 22.0029 48.6327 22.0029C48.6327 22.0029 40.7158 23.5576 35.984 34.815C31.2546 46.0723 22.1293 40.6011 21.356 36.0548C19.304 26.8841 20.6396 17.2854 25.1187 9.01311C30.3242 0 41.0928 7.04517 30.3242 19.7587C19.7924 30.1871 0.911079 34.0653 0 44.0636ZM50.6289 23.1828L52.6106 26.4699C52.7075 26.6346 52.8404 26.7756 52.9993 26.8826C53.1583 26.9895 53.3393 27.0598 53.5291 27.0881C53.7189 27.1165 53.9127 27.1022 54.0963 27.0464C54.2798 26.9905 54.4484 26.8945 54.5898 26.7654L57.5792 24.1463C57.7997 23.9414 57.9434 23.6678 57.9864 23.3707C58.0295 23.0737 57.9694 22.7709 57.816 22.5124L55.8368 19.2853C55.7397 19.1204 55.6066 18.9792 55.4473 18.8722C55.2881 18.7652 55.1067 18.695 54.9166 18.6669C54.7264 18.6388 54.5324 18.6534 54.3487 18.7097C54.165 18.766 53.9963 18.8625 53.8551 18.9922L50.8681 21.6473C50.6668 21.8438 50.5349 22.0998 50.4922 22.377C50.4495 22.6543 50.4983 22.9378 50.6313 23.1852L50.6289 23.1828Z" fill="#969695"/>
</svg>
